HIERARCHY
ROOT Pelvis
{
	OFFSET 0.000000 0.000000 0.000000
	CHANNELS 6 Xposition Yposition Zposition Xrotation Yrotation Zrotation
	JOINT LeftUpLeg_virtual
	{
		OFFSET 0.000000 0.000000 0.000000
		CHANNELS 3 Xrotation Yrotation Zrotation
		JOINT LeftUpLeg
		{
			OFFSET 18.735201 -5.666702 -4.541200
			CHANNELS 3 Xrotation Yrotation Zrotation
			JOINT LeftLeg
			{
				OFFSET -0.021200 -31.938179 0.493100
				CHANNELS 3 Xrotation Yrotation Zrotation
				JOINT LeftFoot
				{
					OFFSET 0.021200 -31.938179 -4.336299
					CHANNELS 3 Xrotation Yrotation Zrotation
					JOINT LeftToeBase
					{
						OFFSET 0.943001 -26.722000 15.023500
						CHANNELS 3 Xrotation Yrotation Zrotation
						End Site
						{
							OFFSET 0 0 0
						}
					}
				}
			}
		}
	}
	JOINT RightUpLeg_virtual
	{
		OFFSET 0.000000 0.000000 0.000000
		CHANNELS 3 Xrotation Yrotation Zrotation
		JOINT RightUpLeg
		{
			OFFSET -18.735201 -5.666702 -4.541200
			CHANNELS 3 Xrotation Yrotation Zrotation
			JOINT RightLeg
			{
				OFFSET 0.018946 -31.938133 0.493100
				CHANNELS 3 Xrotation Yrotation Zrotation
				JOINT RightFoot
				{
					OFFSET -0.018946 -31.938126 -4.336299
					CHANNELS 3 Xrotation Yrotation Zrotation
					JOINT RightToeBase
					{
						OFFSET -0.943001 -26.722004 15.023500
						CHANNELS 3 Xrotation Yrotation Zrotation
						End Site
						{
							OFFSET 0 0 0
						}
					}
				}
			}
		}
	}
	JOINT Hips_virtual
	{
		OFFSET 0.000000 0.000000 0.000000
		CHANNELS 3 Xrotation Yrotation Zrotation
		JOINT Hips
		{
			OFFSET -0.000000 -0.000000 -0.000000
			CHANNELS 3 Xrotation Yrotation Zrotation
			JOINT Spine
			{
				OFFSET 0.000000 10.199997 -0.299500
				CHANNELS 3 Xrotation Yrotation Zrotation
				JOINT Spine1
				{
					OFFSET 0.000000 11.900002 -1.516600
					CHANNELS 3 Xrotation Yrotation Zrotation
					JOINT Spine2
					{
						OFFSET 0.000000 13.600006 -2.842500
						CHANNELS 3 Xrotation Yrotation Zrotation
						JOINT Neck_virtual
						{
							OFFSET 0.000000 0.000000 0.000000
							CHANNELS 3 Xrotation Yrotation Zrotation
							JOINT Neck
							{
								OFFSET 0.000000 9.624100 -2.890100
								CHANNELS 3 Xrotation Yrotation Zrotation
								JOINT Head
								{
									OFFSET 0.000000 14.068802 -1.351900
									CHANNELS 3 Xrotation Yrotation Zrotation
									End Site
									{
										OFFSET 0 0 0
									}
								}
							}
						}
						JOINT LeftShoulder_virtual
						{
							OFFSET 0.000000 0.000000 0.000000
							CHANNELS 3 Xrotation Yrotation Zrotation
							JOINT LeftShoulder
							{
								OFFSET 15.263000 10.923401 -0.547700
								CHANNELS 3 Xrotation Yrotation Zrotation
								JOINT LeftArm
								{
									OFFSET 25.438599 -2.830597 -13.032500
									CHANNELS 3 Xrotation Yrotation Zrotation
									JOINT LeftForeArm
									{
										OFFSET 29.960503 0.000000 0.000000
										CHANNELS 3 Xrotation Yrotation Zrotation
										JOINT LeftHand
										{
											OFFSET 27.849251 0.000000 0.000000
											CHANNELS 3 Xrotation Yrotation Zrotation
											End Site
											{
												OFFSET 0 0 0
											}
										}
									}
								}
							}
						}
						JOINT RightShoulder_virtual
						{
							OFFSET 0.000000 0.000000 0.000000
							CHANNELS 3 Xrotation Yrotation Zrotation
							JOINT RightShoulder
							{
								OFFSET -15.263000 10.923401 -0.547700
								CHANNELS 3 Xrotation Yrotation Zrotation
								JOINT RightArm
								{
									OFFSET -25.438599 -2.830597 -13.032500
									CHANNELS 3 Xrotation Yrotation Zrotation
									JOINT RightForeArm
									{
										OFFSET -29.960503 0.000000 0.000000
										CHANNELS 3 Xrotation Yrotation Zrotation
										JOINT RightHand
										{
											OFFSET -27.849251 0.000000 0.000000
											CHANNELS 3 Xrotation Yrotation Zrotation
											End Site
											{
												OFFSET 0 0 0
											}
										}
									}
								}
							}
						}
					}
				}
			}
		}
	}
}
MOTION
Frames: 4
Frame Time: 0.03333333
-5.598304 59.869892 126.843925 0.000000 0.000000 0.000000 14.499397 -63.478842 21.735928 -78.600751 -11.143568 39.585014 101.860305 -18.414354 -11.080225 -12.931373 -7.854868 -18.564493 0.000000 0.000000 0.000000 15.335349 -62.795079 22.529560 -88.358121 36.670835 -29.294640 123.576632 15.923413 3.748214 -62.804662 4.167856 1.068066 0.000000 0.000000 0.000000 16.363390 -63.326864 23.448845 -0.767035 0.017302 -0.160270 24.888391 3.129270 -15.297059 9.327439 5.617105 -3.721627 0.000000 0.000000 0.000000 5.898445 3.885124 -2.404195 -4.369486 4.346139 -1.949360 0.000000 0.000000 0.000000 9.468810 4.352129 -0.833976 0.955482 -16.311393 1.989513 -33.535682 18.393536 -34.185681 -7.965721 -78.191022 1.250485 0.000000 0.000000 0.000000 3.267519 4.023594 -2.503203 11.472643 24.348403 15.604967 -54.339995 -4.315999 19.553387 3.386476 74.759986 9.069781 0.000000 0.000000 0.000000 
-4.936456 60.285793 127.082047 0.000000 0.000000 0.000000 18.991319 -63.023255 24.451066 -80.171613 -11.345903 39.019628 104.177242 -19.508815 -11.898960 -14.532189 -8.692603 -22.494793 0.000000 0.000000 0.000000 19.088903 -62.337641 24.875380 -89.126216 37.183789 -29.053371 122.364765 16.076851 3.838002 -63.167188 3.677841 0.147023 0.000000 0.000000 0.000000 20.521787 -62.836087 25.939631 -0.805896 -0.067153 -0.187865 26.570927 1.835722 -15.114992 8.200124 5.555418 -3.624282 0.000000 0.000000 0.000000 4.480366 3.954147 -2.337953 -4.440325 4.761459 -1.510207 0.000000 0.000000 0.000000 8.634414 4.346343 -0.887073 1.614797 -17.123916 2.848295 -33.587489 17.065820 -36.205511 -3.908586 -73.043300 3.189651 0.000000 0.000000 0.000000 1.817696 4.088932 -2.433712 13.713362 23.194180 14.601957 -56.496501 0.314856 24.169575 4.336121 73.218303 8.933554 0.000000 0.000000 0.000000 
-4.418852 61.235519 126.371513 0.000000 0.000000 0.000000 22.176511 -62.785285 26.157688 -81.400084 -10.511277 38.287483 105.057626 -19.116228 -13.619594 -14.096230 -7.755350 -23.407051 0.000000 0.000000 0.000000 22.035165 -62.225175 26.462818 -87.975869 36.798245 -28.992924 119.574892 15.674714 4.263963 -62.821123 2.913512 0.021108 0.000000 0.000000 0.000000 23.722847 -62.610568 27.714713 -0.839529 -0.120217 -0.221556 27.607893 0.875944 -15.057249 6.929889 5.446300 -3.558527 0.000000 0.000000 0.000000 2.976388 3.998356 -2.264895 -4.366809 5.004253 -0.933407 0.000000 0.000000 0.000000 7.405797 4.235569 -1.159655 1.692852 -18.300940 3.349796 -33.728410 15.835181 -36.704788 -3.605418 -69.588966 1.581850 0.000000 0.000000 0.000000 0.369677 4.146158 -2.376842 14.933860 22.043466 13.820232 -58.111844 0.605604 26.719125 3.651292 76.478666 9.832139 0.000000 0.000000 0.000000 
-4.034177 62.542850 125.414825 0.000000 0.000000 0.000000 23.547516 -62.790858 26.623370 -81.762835 -9.053962 36.981663 105.183294 -17.371206 -15.270466 -13.426066 -5.073466 -21.094843 0.000000 0.000000 0.000000 23.711280 -62.371068 27.105983 -84.906580 36.180359 -29.211777 115.559697 14.744951 4.504834 -60.799953 2.013465 1.042842 0.000000 0.000000 0.000000 25.268971 -62.466800 28.334348 -0.884461 -0.121700 -0.232747 28.021539 0.199925 -15.250527 5.554272 5.294592 -3.427891 0.000000 0.000000 0.000000 1.381784 3.967888 -2.072133 -4.191351 5.102281 -0.304682 0.000000 0.000000 0.000000 5.837890 4.014537 -1.439424 1.272010 -19.701074 3.369114 -33.087636 14.819677 -36.116739 -5.208280 -68.300130 -1.619443 0.000000 0.000000 0.000000 -1.060609 4.113998 -2.230347 15.186097 21.276181 13.320588 -58.002267 -2.838451 27.322375 -1.418692 83.585464 14.619082 0.000000 0.000000 0.000000 
